<?xml version="1.0" encoding="utf-8"?>
<!-- Generator: Adobe Illustrator 27.5.0, SVG Export Plug-In . SVG Version: 6.00 Build 0)  -->
<svg version="1.1" id="Layer_1" xmlns="http://www.w3.org/2000/svg" xmlns:xlink="http://www.w3.org/1999/xlink" x="0px" y="0px"
	 viewBox="0 0 4000 4000" style="enable-background:new 0 0 4000 4000;" xml:space="preserve">
<g>
	<g>
		<rect style="fill:#FEEBCD;" width="4000" height="4000"/>
	</g>
	<g>
		<g style="opacity:0.2;">
			<ellipse style="fill:#650000;" cx="2021.426" cy="3428.466" rx="927.813" ry="116.534"/>
		</g>
		<g>
			<path style="fill:#FEB845;" d="M1703.679,3264.328l-140.055,155.26c0,0-18.499,1.847-45.305,2.999
				c-57.981,2.354-155.09,1.395-189.664-29.085c-33.543-29.553-49.98-67.587-44.248-106.268
				c2.887-19.621,11.485-39.381,26.38-58.228c44.355-56.198,123.832-49.995,123.832-49.995c0.146-24.093,0.461-48.134,0.951-71.899
				c4.502-224.027,22.515-424.46,22.515-424.46l110.039,118.74c0,0,80.489,194.131,95.596,244.353
				c10.05,33.37,24.323,118.626,32.846,172.257C1700.865,3245.236,1703.679,3264.328,1703.679,3264.328z"/>
		</g>
		<g>
			<path style="fill:#B1411E;" d="M3324.777,2756.643l42.528,11.913c-38.155,113.413-140.47,172.86-227.953,141.361
				c-80.362-28.926-123.037-132.711-80.039-212.629c3.861-7.152,8.399-14.096,13.615-20.777
				c63.968-81.489,174.178-80.847,174.178-80.847l-5.737,57c48.846-34.961,151.487-57.778,151.487-57.778
				C3392.085,2674.289,3370.793,2729.761,3324.777,2756.643z"/>
		</g>
		<g>
			<path style="fill:#993419;" d="M3367.305,2768.556c-38.155,113.413-140.47,172.86-227.953,141.361
				c-80.362-28.926-123.037-132.711-80.039-212.629c6.213-2.559,10.098-4.053,10.098-4.053
				C3035.868,2870.01,3302.117,2894.611,3367.305,2768.556z"/>
		</g>
		<g style="opacity:0.6;">
			<path style="fill:#F1F2F2;" d="M3243.488,2631.382c-21.322,0.907-113.396,8.959-169.699,80.739
				c-17.934,22.898-27.503,48.843-30.008,75.01c-5.278-37.575,3.005-77.326,29.147-110.619
				c63.968-81.489,174.178-80.847,174.178-80.847L3243.488,2631.382z"/>
		</g>
		<g style="opacity:0.6;">
			<path style="fill:#F1F2F2;" d="M3392.856,2594.888c-0.142,12.664-0.746,24.78-1.981,36.238
				c-16.822,3.992-104.591,25.552-148.646,57.093l3.88-38.805C3296.512,2616.319,3392.856,2594.888,3392.856,2594.888z"/>
		</g>
		<g>
			<path style="fill:#650000;" d="M3187.442,2937.856c-18.667,0.005-37.124-3.149-54.751-9.497
				c-49.116-17.686-87.651-60.293-103.086-113.975c-15.288-53.188-5.112-107.842,27.925-149.946
				c69.097-88.086,184.57-88.442,189.702-88.384c5.522,0.029,10.771,2.393,14.463,6.499s5.479,9.58,4.922,15.073l-1.943,19.214
				c53.018-25.142,120.454-40.288,123.96-41.064c5.83-1.299,11.943,0.142,16.587,3.906s7.314,9.438,7.256,15.42
				c-0.654,68.076-16.206,119.258-46.333,152.793l6.455,1.821c5.171,1.455,9.512,4.966,12.021,9.712
				c2.505,4.746,2.959,10.317,1.245,15.405c-22.036,65.513-66.089,118.276-120.864,144.756
				C3239.893,2931.728,3213.468,2937.856,3187.442,2937.856z M3225.245,2617.065c-32.993,4.414-96.079,19.57-136.87,71.572
				c-25.176,32.085-32.861,73.97-21.089,114.912c11.963,41.621,41.382,74.492,78.687,87.925
				c32.202,11.602,68.418,9.043,101.963-7.178c39.966-19.321,73.237-56.147,93.369-102.666l-21.826-6.147
				c-7.573-2.129-13.135-8.584-14.131-16.382c-0.996-7.803,2.764-15.444,9.556-19.409c33.447-19.541,52.671-59.634,57.295-119.365
				c-32.417,8.774-88.53,26.138-119.443,48.257c-6.265,4.487-14.58,4.878-21.235,1.016c-6.665-3.862-10.449-11.27-9.673-18.931
				L3225.245,2617.065z"/>
		</g>
		<g>
			<path style="fill:#FEB845;" d="M3086.996,2859.923c-60.647,21.858-75.214,126.13-137.567,216.487
				c-0.055,0.057-0.109,0.115-0.165,0.116c-6.06,8.886-12.682,17.673-19.815,26.193c-79.88,95.319-249.812,133.991-321.106,81.541
				l80.125-113.027c0,0,69.686,46.158,140.922,8.079c3.264-1.703,6.468-3.574,9.723-5.669
				c74.469-48.018,91.22-108.253,132.932-178.784c41.712-70.531,94.731-97.414,132.998-99.572
				C3143.254,2793.186,3153.641,2835.904,3086.996,2859.923z"/>
		</g>
		<g>
			<path style="fill:#F48D40;" d="M2949.238,3076.511c-6.031,8.923-12.657,17.698-19.774,26.216
				c-69.138,82.44-205.638,122.515-287.327,97.835c-12.745-3.784-24.184-9.215-33.779-16.306l80.084-113.02
				c0,0,18.55,12.259,46.334,18.911c26.051,6.263,60.168,7.592,94.614-10.848C2829.391,3079.3,2866.904,3156.578,2949.238,3076.511z
				"/>
		</g>
		<g>
			<path style="fill:#650000;" d="M2695.582,3227.216c-38.657,0-73.555-8.574-98.833-27.168c-8.726-6.416-10.596-18.682-4.18-27.402
				c6.416-8.726,18.682-10.596,27.402-4.18c59.204,43.535,218.608,12.183,294.453-78.32c34.019-40.591,55.356-87.534,74.185-128.95
				c25.283-55.62,47.119-103.657,91.724-119.731c28.433-10.249,34.971-22.007,35.425-24.805c-0.889-0.684-3.823-2.075-9.648-1.782
				c-15.522,0.859-69.844,9.893-117.192,89.966c-9.487,16.04-17.725,31.685-25.693,46.816
				c-26.777,50.835-52.065,98.853-113.486,138.457c-84.272,54.331-168.54-0.21-172.085-2.559
				c-9.023-5.977-11.494-18.14-5.518-27.168c5.957-8.999,18.076-11.484,27.104-5.557l0,0c2.705,1.758,66.807,42.603,129.248,2.334
				c52.778-34.028,73.638-73.638,100.049-123.779c8.188-15.547,16.66-31.626,26.631-48.496
				c38.633-65.327,94.248-106.133,148.774-109.155c25.82-1.47,45.981,11.768,50.269,32.852c4.39,21.587-9.219,51.245-60.586,69.761
				c-29.048,10.469-47.715,51.528-69.326,99.072c-19.863,43.696-42.373,93.218-79.824,137.905
				C2886.407,3184.618,2781.7,3227.206,2695.582,3227.216z"/>
		</g>
		<g>
			<path style="fill:#F1F2F2;" d="M1703.689,3264.326l-87.418,96.935l-52.651,58.349c0,0-6.608,0.644-17.681,1.45
				c-1.344,0.086-2.742,0.174-4.247,0.264c-6.667,0.431-14.572,0.837-23.392,1.265l-0.969,0.023
				c-21.624,0.899-48.592,1.282-75.658-0.164c-2.049-0.112-4.098-0.224-6.201-0.388c-2.049-0.112-4.153-0.277-6.202-0.389
				c-4.1-0.332-8.201-0.663-12.304-1.102c-3.994-0.388-7.989-0.83-11.932-1.327c-0.054,0.001-0.108,0.003-0.217-0.049
				c-3.943-0.497-7.779-1.05-11.617-1.657c-3.893-0.66-7.733-1.375-11.521-2.145c-3.68-0.772-7.253-1.548-10.72-2.433
				c-7.586-1.97-14.694-4.222-21.112-6.867c-2.503-1.07-4.844-2.144-7.133-3.273l-0.055-0.052c-2.671-1.335-5.183-2.783-7.536-4.341
				c-2.353-1.559-4.492-3.176-6.472-4.905c-5.337-4.717-10.248-9.606-14.679-14.722c-2.989-3.374-5.712-6.862-8.275-10.407
				c-6.685-9.261-11.984-19.095-15.73-29.235c-6.218-16.65-8.203-34.209-5.563-51.935c2.864-19.615,11.434-39.314,26.378-58.199
				c44.357-56.21,123.822-50,123.822-50c0.171-24.127,0.452-48.149,0.954-71.907c0,0,53.173-5.539,113.149,7.442
				c22.031,4.799,44.983,12.052,66.571,22.999c1.199,0.617,2.399,1.234,3.6,1.905c31.582,16.737,59.914,41.629,77.659,78.515
				C1700.858,3245.226,1703.689,3264.326,1703.689,3264.326z"/>
		</g>
		<g>
			<path style="fill:#650000;" d="M1480.45,3443.139c-59.165,0-132.383-6.396-164.756-34.932
				c-61.47-54.111-69.434-129.233-20.278-191.367c35.781-45.332,90.117-55.342,119.756-57.241
				c0.171-17.695,0.439-35.415,0.796-52.886c4.468-222.134,22.417-423.809,22.598-425.815c0.967-10.786,10.576-18.74,21.274-17.769
				c10.786,0.967,18.74,10.493,17.769,21.274c-0.176,2.002-18.008,202.383-22.441,423.105c-0.488,23.647-0.806,47.739-0.947,71.621
				c-0.029,5.439-2.324,10.625-6.333,14.312c-4.004,3.687-9.336,5.537-14.795,5.112c-0.63-0.024-69.785-4.448-106.919,42.593
				c-35.688,45.112-29.771,97.847,15.434,137.642c31.011,27.324,143.589,28.086,212.578,22.002l128.735-142.715
				c-1.226-8.14-3.223-21.196-5.718-37.017c-13.569-85.4-25.024-145.659-32.256-169.658c-14.649-48.716-94.131-240.571-94.932-242.5
				c-4.15-10,0.596-21.47,10.596-25.615c10.01-4.15,21.475,0.601,25.615,10.596c3.306,7.964,81.05,195.63,96.26,246.221
				c9.898,32.847,23.648,113.203,33.438,174.824c4.321,27.373,7.149,46.548,7.149,46.548c0.85,5.781-0.923,11.646-4.839,15.986
				l-140.054,155.259c-3.262,3.618-7.754,5.889-12.603,6.372C1557.379,3439.916,1522.452,3443.139,1480.45,3443.139z"/>
		</g>
		<g>
			<path style="fill:#650000;" d="M1397.754,3429.114c-1.411-3.955-2.134-6.777-2.954-10.044c-0.818-3.159-1.45-6.294-2.1-9.417
				c-1.213-6.248-2.131-12.48-2.82-18.701c-1.375-12.434-1.631-24.871-0.847-37.131c0.215-6.116,1.152-12.214,1.851-18.218
				c1.15-6.006,1.973-11.96,3.633-17.783c2.668-11.716,7.119-22.869,11.794-33.552c-1.555,11.658-2.695,23.149-2.048,34.604
				c-0.005,5.684,0.833,11.372,1.321,16.953c0.942,5.596,1.626,11.128,3,16.575c2.393,10.898,5.696,21.497,9.868,31.611
				c2.087,5.054,4.341,9.995,6.782,14.766c1.255,2.363,2.48,4.727,3.816,6.963c1.24,2.158,2.793,4.683,3.838,5.984
				L1397.754,3429.114z"/>
		</g>
		<g>
			<polygon style="fill:#650000;" points="1440.198,3160.217 1496.882,3197.463 1429.058,3197.805 			"/>
		</g>
		<g>
			<path style="fill:#FEB845;" d="M2766.408,3039.432c0,0-33.67,76.443-132.713,150.768c0,0,15.831,17.601,31.323,44.34
				c21.569,37.125,42.553,91.744,19.881,141.143c-39.066,84.977-453.61,85.639-511.807,72.144
				c-34.874-8.121-90.424-28.01-112.39-72.297c-7.535-15.055-11.216-32.95-8.816-54.184c0.188-1.517,0.375-3.034,0.618-4.552
				c-0.003-0.112-0.004-0.168,0.049-0.281c0.723-4.835,1.675-9.508,2.964-14.133c-0.452-0.157-0.959-0.257-1.41-0.414
				c-3.045-0.823-6.204-1.699-9.307-2.632c-114.521-32.974-284.586-104.158-419.237-253.787
				c-224.513-249.473-208.647-636.125-208.647-636.125l1055.842-238.678c0,0,5.837,14.368,17.78,37.945
				c24.889,49.314,76.301,139.051,156.591,222.991C2813.918,2606.077,2860.911,2856.031,2766.408,3039.432z"/>
		</g>
		<g>
			<path style="fill:#F48D40;" d="M2766.396,3039.415c0,0-9.034,20.518-31.62,50.733c-27.784-6.652-46.334-18.911-46.334-18.911
				l-80.084,113.02c9.594,7.091,21.033,12.522,33.779,16.306c6.057,7.769,14.525,19.518,22.898,33.962
				c-18.749,1.799-52.818,0.199-94.293-4.829c-2.509-10.224-6.323-21.009-11.548-32.244
				c-44.699-96.112-25.444-125.977-7.681-135.129c25.048-12.99,48.739-28.64,68.276-49.035
				c158.179-165.738,128.169-422.719-28.749-545.68c-170.363-133.459-414.442-17.392-419.125-15.125l84.788-181.302
				c0,0,116.323-55.042,131.193-59.17c9.948-2.771,66.745-3.228,102.657-3.342c24.884,49.314,76.269,139.072,156.589,223.015
				C2813.917,2606.098,2860.934,2856.046,2766.396,3039.415z"/>
		</g>
		<g>
			<path style="fill:#F48D40;" d="M2734.776,3090.148c-20.863,27.966-53.317,64.234-101.074,100.065c0,0,3.32,3.689,8.435,10.35
				c-12.745-3.784-24.184-9.215-33.779-16.306l80.084-113.02C2688.442,3071.237,2706.992,3083.496,2734.776,3090.148z"/>
		</g>
		<g>
			<path style="fill:#F48D40;" d="M1548.709,3114.557c11.043-129.066-33.698-235.785-37.292-244.151l26.078,47.454l66.185,109.538
				l11.601,110.158C1593.692,3126.608,1570.74,3119.355,1548.709,3114.557z"/>
		</g>
		<g style="opacity:0.6;">
			<path style="fill:#F1F2F2;" d="M2516.577,2718.248c-115.837-73.502-220.049-78.658-297.421-39.479
				c-3.861,62.781-40.256,86.742-94.358,89.674c-61.496,102.661-62.471,261.674,32.255,421.344l-62.049-80.18
				c0,0-51.476-97.018-55.696-151.089c-4.164-54.073-0.945-159.639,41.623-213.328c42.569-53.633,68.827-89.057,213.274-120.559
				C2436.702,2593.569,2514.422,2714.826,2516.577,2718.248z"/>
		</g>
		<g>
			<path style="fill:#F1F2F2;" d="M1987.304,3260.219c-1.281,4.931-2.618,9.755-3.958,14.472
				c-5.287-4.88-10.322-10.466-14.675-16.768c-21.255-30.609-297.437-177.935-297.437-177.935l-87.035-85.504l-73.063-124.503
				c0,0-20.333-150.654,102.34-56.588c97.383,74.754,282.454,146.15,354.542,172.408c-11.53,82.178-22.013,149.685-36.157,201.665
				C1953.316,3206.279,1972.307,3230.104,1987.304,3260.219z"/>
		</g>
		<g>
			<path style="fill:#F1F2F2;" d="M2161.532,3201.57c0,0-5.626,1.159-13.923,3.19c-23.019,5.564-66.391,17.866-65.547,30.499
				c0.745,10.805-20.86,34.75-37.104,51.081l-0.052,0.055c-9.567,9.654-17.259,16.679-17.259,16.679s-13.098-5.014-28.212-15.472
				c-5.256-3.588-10.798-7.87-16.089-12.911c1.34-4.717,2.677-9.542,3.958-14.472c-14.997-30.114-33.988-53.94-55.442-72.752
				c14.144-51.98,24.628-119.487,36.157-201.665c18.688,6.817,29.817,10.587,29.817,10.587l52.304,34.221l45.491,75.416
				l21.371,35.399c0.056,0.106,0.113,0.213,0.223,0.318l1.572,2.654l5.842,7.774c0.835,1.111,1.614,2.169,2.394,3.227l30.494,40.833
				L2161.532,3201.57z"/>
		</g>
		<g>
			<path style="fill:#F1F2F2;" d="M2684.923,3375.659c-39.084,84.998-453.629,85.647-511.838,72.192
				c-8.882-2.101-19.127-4.922-29.827-8.756c-1.629-0.553-3.314-1.212-4.944-1.819c-0.869-0.302-1.685-0.659-2.5-0.963
				c-5.274-2.08-10.552-4.376-15.837-6.94c-1.362-0.667-2.671-1.335-3.979-2.004c-7.579-3.909-14.957-8.416-21.92-13.578
				c-0.768-0.574-1.536-1.147-2.303-1.721c-5.596-4.28-10.824-8.946-15.525-14.109c-1.714-1.843-3.32-3.689-4.821-5.645
				c-1.332-1.637-2.556-3.277-3.728-4.971c-0.891-1.217-1.729-2.489-2.515-3.816c-0.617-1.008-1.233-2.016-1.85-3.025
				c-0.169-0.319-0.337-0.584-0.507-0.903c-0.732-1.329-1.465-2.711-2.145-4.094c-0.015-0.054-0.028-0.104-0.043-0.158
				c-7.459-15.036-11.141-32.865-8.75-54.014c0.178-1.512,0.359-2.97,0.593-4.43c-0.001-0.054-0.001-0.054-0.002-0.108
				c-0.001-0.054-0.003-0.107,0.05-0.163c0.049-0.217,0.045-0.378,0.095-0.541c0.696-4.647,1.661-9.248,2.9-13.693
				c-0.489-0.15-0.922-0.247-1.41-0.397c-3.09-0.841-6.181-1.735-9.327-2.682c2.898-4.863,6.278-9.844,10.3-14.949l0.054-0.001
				c2.401-3.127,5.125-6.316,8.063-9.51c11.699-12.775,27.319-25.968,48.162-39.125c0.159-0.112,0.265-0.168,0.424-0.279l0.424-0.28
				l77.484-44.572c0,0,87.526-30.115,196.635,1.817c62.092,18.153,129.649,30.682,184.408,37.274
				c41.475,5.028,75.544,6.628,94.293,4.829C2686.609,3271.642,2707.583,3326.273,2684.923,3375.659z"/>
		</g>
		<g>
			<path style="fill:#650000;" d="M2289.298,3473.93c-56.104,0-101.797-2.642-120.635-7.007
				c-94.639-22.09-144.292-75.938-136.26-147.754c0.112-0.972,0.234-1.938,0.361-2.9
				c-121.997-35.981-288.418-109.385-421.772-257.612c-227.241-252.505-214.321-633.926-213.662-650.039
				c0.361-8.853,6.621-16.362,15.264-18.315l1055.845-238.682c9.312-2.119,18.862,2.842,22.476,11.733
				c0.542,1.328,55.884,135.073,170.381,254.775c171.016,178.823,221.46,437.729,122.773,629.819
				c-3.521,7.715-36.191,75.771-122.637,145.503c25.435,34.155,75.591,115.679,41.279,190.41
				c-7.495,16.309-30.298,65.913-265.005,84.36C2387.252,3472.187,2334.844,3473.93,2289.298,3473.93z M1436.319,2425.131
				c0.107,72.656,11.919,394.072,203.813,607.305c133.535,148.423,302.432,218.442,420.601,251.045
				c5.01,1.382,9.268,4.702,11.836,9.224c2.563,4.526,3.228,9.883,1.841,14.897c-1.406,5.098-2.407,10.322-3.047,15.962
				c-7.627,68.164,63.252,95.156,106.182,105.176c26.401,6.113,142.441,9.404,257.09,0.4
				c156.138-12.271,222.451-39.888,232.451-61.646c33.12-72.134-47.178-163.306-47.993-164.219
				c-3.657-4.097-5.435-9.541-4.893-15.005s3.34-10.454,7.729-13.75c93.853-70.43,126.221-142.271,126.538-142.988
				c0.161-0.366,0.332-0.723,0.513-1.079c91.465-177.505,43.755-418.159-116.016-585.225
				c-98.008-102.466-153.418-212.08-171.65-251.802L1436.319,2425.131z"/>
		</g>
		<g>
			<path style="fill:#650000;" d="M2327.563,3233.062c-26.848-4.573-52.756-8.865-78.32-10.051
				c-25.493-1.26-50.435-0.081-74.065,4.954c-11.79,2.534-23.496,5.891-33.481,10.203c-10.242,4.409-19.814,10.168-28.401,17.065
				c-17.485,13.572-30.447,31.794-38.892,52.393l-0.266,0.652c-4.119,10.049-15.603,14.854-25.652,10.735
				c-8.804-3.608-13.577-12.878-11.855-21.877c2.905-15.234,9.136-29.841,17.434-43.027c8.381-13.164,19.121-24.744,31.313-34.333
				c12.234-9.541,25.913-17.188,40.459-22.273c3.643-1.25,7.261-2.551,10.996-3.469l5.564-1.445l5.378-1.113
				c7.158-1.519,14.402-2.449,21.621-3.179c28.936-2.759,57.717,0.754,84.434,8.708
				C2280.608,3204.885,2305.464,3217.224,2327.563,3233.062z"/>
		</g>
		<g>
			<path style="fill:#FEB845;" d="M2052.732,2872.724c-1.118,11.658-2.242,23.1-3.478,34.33
				c-16.005,150.994-39.506,268.084-61.95,353.165c-0.641,2.439-1.281,4.931-1.977,7.317c-0.642,2.385-1.339,4.771-1.981,7.156
				c-0.645,2.277-1.291,4.5-1.938,6.724c-0.743,2.657-1.542,5.26-2.341,7.865c-0.948,3.092-1.845,6.075-2.85,9.061
				c-1.848,5.968-3.81,11.669-5.777,17.209c-1.967,5.486-3.992,10.812-6.023,15.922c-35.7,89.116-149.384,135.263-292.662,117.726
				c-143.277-17.537-192.946-42.991-174.494-148.436c18.451-105.499,117.609-117.696,117.609-117.696
				c1.828-15.713,3.265-32.01,4.37-48.675c12.754-189.685-15.872-427.261-15.872-427.261l382.862,141.085l64.381,23.752
				L2052.732,2872.724z"/>
		</g>
		<g>
			<path style="fill:#F1F2F2;" d="M1987.304,3260.219c-5.324,20.321-10.963,38.765-16.863,55.331c0,0,0.001,0.054-0.051,0.109
				c-1.967,5.486-3.94,10.757-5.972,15.813c-27.826,69.595-103.293,112.934-203.215,120.303l-0.377,0.009
				c-27.951,2.022-57.801,1.236-89.07-2.586c-94.456-11.556-148.179-26.519-168.563-65.657c-4.458-8.454-7.331-18.13-8.673-29.136
				c-1.872-15.085-0.901-32.824,2.742-53.643c18.451-105.499,117.609-117.696,117.609-117.696c1.828-15.713,3.265-32.01,4.37-48.675
				c0,0,193.739-51.205,312.62,53.076C1953.316,3206.279,1972.307,3230.104,1987.304,3260.219z"/>
		</g>
		<g>
			<path style="fill:#F48D40;" d="M2058.683,2733.496l-5.196,110.295c-1.222,9.614-2.179,19.006-2.873,28.177
				c-0.894,12.029-1.365,23.725-1.36,35.087c-16.005,150.994-39.506,268.084-61.95,353.165
				c-14.997-30.114-33.988-53.94-55.442-72.752c14.144-51.98,24.628-119.487,36.157-201.665
				c3.438-24.853,7.005-51.054,10.755-78.552c2.841-20.584,5.328-40.244,7.458-59.034c22.027-191.47,11.329-288.78,11.329-288.78
				c40.845,27.982,51.217,89.492,51.217,89.492L2058.683,2733.496z"/>
		</g>
		<g>
			<path style="fill:#650000;" d="M2178.12,3222.651c-36.543-24.622-69.387-55.657-94.849-92.28
				c-25.549-36.528-43.457-78.354-52.791-121.758c-9.443-43.433-10.457-88.267-4.717-131.826
				c5.735-43.613,18.135-86.047,35.706-126.016c0.183-0.415,0.378-0.82,0.586-1.216l0.049-0.093
				c24.497-46.274,62.544-84.961,107.488-111.353c44.839-26.482,96.731-41.846,149.346-41.45
				c52.429,0.278,105.356,16.924,147.051,48.44c41.86,31.333,71.001,76.743,82.869,124.636
				c-14.551-20.056-29.758-38.643-46.77-54.807c-16.951-16.179-35.376-30.051-55.061-41.194
				c-39.297-22.415-83.669-33.638-128.347-33.782c-44.578-0.261-89.888,10.244-129.177,32.493
				c-39.255,22.214-71.675,55.769-92.788,95.432l0.635-1.306c-16.184,36.809-27.512,75.718-32.715,115.313
				c-5.215,39.561-4.236,79.851,4.167,118.455c8.315,38.596,24.097,75.376,46.633,107.615c22.471,32.31,51.567,59.912,84.546,82.156
				l0.051,0.034c8.975,6.052,11.345,18.235,5.291,27.212C2199.27,3226.331,2187.095,3228.704,2178.12,3222.651z"/>
		</g>
		<g>
			<path style="fill:#650000;" d="M2618.457,3202.488l-48.271-91.069l78.787,66.458c8.428,7.109,9.497,19.707,2.388,28.135
				c-7.109,8.43-19.707,9.497-28.135,2.388C2621.228,3206.714,2619.617,3204.661,2618.457,3202.488z"/>
		</g>
		<g>
			<path style="fill:#650000;" d="M1603.381,2707.151c9.985,38.875,17.283,78.254,23.386,117.791
				c1.655,9.875,2.979,19.785,4.287,29.702c1.353,9.912,2.678,19.834,3.845,29.775c2.231,19.88,4.268,39.812,5.957,59.775
				c1.462,19.988,2.476,40,2.515,60.071c0.22,20.049-0.605,40.146-1.16,60.217c-1.66,40.178-3.384,80.449-7.856,120.811
				c-0.974,8.779-7.642,15.542-15.916,17.019l-1.165,0.2h-0.002c-1.628,0.239-4.839,0.903-7.388,1.509
				c-2.725,0.745-5.459,1.392-8.171,2.339c-2.734,0.811-5.425,1.782-8.083,2.859c-2.705,0.955-5.31,2.136-7.896,3.362
				c-10.313,4.88-20.164,10.745-28.647,18.086c-17.131,14.504-29.385,33.826-36.182,55.669c-1.597,5.5-2.664,11.233-4.087,16.826
				c-1.133,5.903-1.956,12.034-2.637,17.961c-1.282,11.897-1.348,23.489,0.244,34.006c1.682,10.51,5.264,19.497,11.013,26.995
				c2.959,3.716,6.448,7.139,10.417,10.32c4.146,3.059,8.606,5.974,13.591,8.501c20.005,10.188,44.714,16.008,69.492,20.62
				c12.466,2.285,25.129,4.219,37.9,5.93c6.345,0.867,12.842,1.711,19.153,2.415l18.789,1.804
				c25.051,1.809,50.178,2.041,74.924-0.403c24.683-2.632,48.982-7.62,71.875-15.776c22.859-8.137,44.307-19.529,62.297-34.531
				c18.003-14.951,32.361-33.555,41.284-54.639c9.453-22.605,16.875-47.363,23.391-72.017c6.45-24.797,12.102-49.954,16.99-75.356
				c19.424-101.707,31.162-205.554,41.243-309.424l0.005-0.061c1.045-10.776,10.627-18.662,21.404-17.617
				c10.774,1.045,18.662,10.627,17.617,21.404v0.002c-10.159,104.541-21.921,209.102-41.787,313.191
				c-5.007,26.016-10.83,51.975-17.563,77.849c-6.885,25.928-14.446,51.511-25.166,77.239
				c-11.458,27.207-30.066,51.106-52.305,69.534c-22.256,18.542-47.832,31.934-74.214,41.343
				c-26.44,9.414-53.782,14.958-81.147,17.866c-27.4,2.708-54.805,2.449-81.948,0.476l-20.303-1.953
				c-6.697-0.747-13.184-1.594-19.807-2.498c-13.179-1.765-26.406-3.779-39.692-6.213c-13.286-2.444-26.638-5.283-40.073-9.05
				c-13.418-3.828-26.982-8.381-40.366-15.31c-6.692-3.408-13.279-7.588-19.624-12.356c-6.277-4.971-12.212-10.723-17.373-17.285
				c-5.127-6.611-9.236-14.021-12.378-21.631c-3.206-7.642-4.993-15.469-6.348-23.162c-2.339-15.388-2.012-30.195-0.527-44.307
				c0.811-7.075,1.738-13.933,3.057-20.881c1.704-7.112,3.113-14.277,5.181-21.318c8.604-28.14,25.398-54.836,48.362-74.111
				c11.375-9.778,24.207-17.468,37.527-23.738c3.337-1.57,6.699-3.076,10.164-4.324c3.418-1.37,6.885-2.615,10.425-3.679
				c3.481-1.189,7.112-2.09,10.706-3.047c3.826-0.876,7.012-1.633,11.863-2.327h0.012l-17.078,17.217
				c4.111-38.674,6.497-77.834,6.689-117.112c-0.176-19.668-0.359-39.309-0.859-58.999c-0.066-19.675-0.527-39.385-0.115-59.121
				l0.876-118.811C1602.173,2787.053,1602.446,2747.244,1603.381,2707.151z"/>
		</g>
		<g>
			<path style="fill:#650000;" d="M2034.89,2829.001c3.621-16.333,6.492-34.004,8.806-51.248c2.275-17.371,3.987-34.863,4.89-52.424
				c0.784-17.544,0.908-35.166-0.186-52.793c-1.296-17.581-3.694-35.159-8.176-52.505c7.554,16.211,13.264,33.42,17.856,50.959
				c4.392,17.576,7.583,35.476,10.09,53.501c2.385,18.027,3.943,36.177,4.905,54.395c0.891,18.337,1.331,36.233,0.679,55.259
				c-0.374,10.869-9.487,19.38-20.359,19.006c-10.869-0.374-19.38-9.487-19.006-20.359c0.042-1.191,0.186-2.354,0.427-3.479
				L2034.89,2829.001z"/>
		</g>
		<g>
			<path style="fill:#650000;" d="M1618.191,3163.738c17.158,6.282,34.121,12.664,51.096,19.216
				c16.926,6.602,33.921,13.162,50.432,20.679c-18.04-1.162-36.062-1.257-54.099-1.423c-18.018-0.1-36.108-0.044-54.048,0.168
				c-11.006,0.129-20.034-8.687-20.164-19.692c-0.132-11.006,8.687-20.032,19.692-20.164
				C1613.564,3162.493,1616.001,3162.944,1618.191,3163.738z"/>
		</g>
		<g>
			<path style="fill:#650000;" d="M1562.065,3438.86c-1.243-7.329-1.829-13.567-2.407-20.293
				c-0.537-6.609-0.874-13.201-1.011-19.792c-0.281-13.176,0.247-26.37,1.909-39.448c1.709-13.052,4.482-26.057,9.353-38.284
				c4.702-12.214,11.934-23.589,21.392-31.907c-6.985,10.53-10.598,22.4-11.904,34.36c-1.418,11.951-0.796,24.019,0.762,35.891
				c1.609,11.885,4.243,23.625,7.583,35.139c1.663,5.754,3.503,11.455,5.503,17.065c1.968,5.488,4.211,11.414,6.396,16.084
				L1562.065,3438.86z"/>
		</g>
		<g>
			<path style="fill:#650000;" d="M1714.126,3460.896c-1.345-4.192-2.124-7.461-3.013-11.108c-0.823-3.55-1.602-7.09-2.249-10.625
				c-1.375-7.065-2.412-14.143-3.215-21.226c-1.584-14.167-2.039-28.403-1.294-42.505c0.73-14.106,3.215-28.093,6.936-41.475
				c3.796-13.425,9.905-25.957,16.975-37.395c-4.143,12.913-6.873,25.906-7.31,39.028c-0.356,13.101,0.513,26.035,2.966,38.713
				c2.446,12.666,5.945,25.039,10.374,37.012c2.224,5.979,4.639,11.873,7.305,17.595c1.296,2.883,2.693,5.688,4.104,8.462
				c1.387,2.659,2.981,5.664,4.263,7.642L1714.126,3460.896z"/>
		</g>
		<g>
			<path style="fill:#650000;" d="M2105.837,3437.959c-0.881-3.875-1.248-6.665-1.689-9.875c-0.417-3.101-0.73-6.177-0.981-9.236
				c-0.527-6.116-0.723-12.2-0.762-18.247c0.005-12.104,1.05-24.124,3.098-35.869c1.929-11.748,5.322-23.21,9.653-34.043
				c4.114-10.93,10.295-20.884,16.643-30.154c-3.469,10.825-6.367,21.533-7.136,32.534c-0.977,10.906-0.95,21.731,0.427,32.39
				c1.262,10.64,3.43,21.072,6.448,31.172c1.55,5.042,3.213,10.01,5.127,14.829c0.945,2.415,1.929,4.788,2.979,7.092
				c0.996,2.202,2.209,4.79,3.115,6.223L2105.837,3437.959z"/>
		</g>
		<g>
			<path style="fill:#650000;" d="M2225.681,3455.239c-0.879-3.875-1.248-6.665-1.689-9.875c-0.417-3.101-0.73-6.177-0.979-9.233
				c-0.527-6.118-0.725-12.2-0.764-18.25c0.005-12.102,1.05-24.124,3.098-35.869c1.929-11.748,5.325-23.21,9.653-34.041
				c4.116-10.933,10.295-20.884,16.643-30.154c-3.467,10.823-6.367,21.531-7.136,32.532c-0.974,10.906-0.95,21.731,0.43,32.39
				c1.26,10.64,3.428,21.072,6.445,31.172c1.55,5.042,3.213,10.01,5.127,14.829c0.947,2.415,1.931,4.788,2.981,7.092
				c0.996,2.205,2.207,4.79,3.113,6.223L2225.681,3455.239z"/>
		</g>
		<g style="opacity:0.3;">
			<path style="fill:#650000;" d="M2161.324,3192.96l-3.798,3.269l-9.917,8.532l-92.522,79.613l-10.129,1.968l-0.052,0.055
				l-26.046,5.099c0,0-6.57-8.941-19.425-3.892c-7.52,2.981-17.24,10.755-28.994,27.947c1.966-5.54,3.928-11.241,5.777-17.209
				c1.006-2.932,1.956-5.97,2.85-9.061c0.8-2.55,1.597-5.208,2.341-7.865c0.646-2.223,1.293-4.446,1.938-6.724
				c0.698-2.332,1.34-4.717,1.981-7.156c0.696-2.386,1.336-4.878,1.977-7.317c22.444-85.081,45.945-202.171,61.95-353.165
				c-0.56,86.005,21.606,152.077,46.377,198.971c7.053,13.345,14.339,25.177,21.371,35.399c0.056,0.106,0.113,0.213,0.223,0.318
				c2.512,3.708,4.965,7.149,7.413,10.428c0.835,1.111,1.614,2.169,2.394,3.227
				C2146.217,3180.563,2161.324,3192.96,2161.324,3192.96z"/>
		</g>
		<g style="opacity:0.3;">
			<path style="fill:#650000;" d="M1987.304,3260.219c-5.324,20.321-10.963,38.765-16.863,55.331c0,0,0.001,0.054-0.051,0.109
				c-4.837,7.063-10.012,15.749-15.518,26.329c-41.89,80.274-153.463,104.616-193.669,109.788l-0.377,0.009
				c-40.316,5.067-226.198,4.82-257.405-67.71c-0.058-0.16-0.171-0.373-0.228-0.533c-4.282-10.073-7.048-19.806-8.673-29.136
				c-3.451-20.271-1.415-38.52,2.742-53.643c7.67-27.97,22.434-45.396,22.434-45.396c-27.259,179.966,258.592,83.404,334.884,51.891
				c37.053-15.326,59.929-55.779,77.282-119.79C1953.316,3206.279,1972.307,3230.104,1987.304,3260.219z"/>
		</g>
		<g style="opacity:0.3;">
			<path style="fill:#650000;" d="M2665.035,3234.525c21.574,37.117,42.548,91.748,19.888,141.134
				c-39.084,84.998-453.629,85.647-511.838,72.192c-8.882-2.101-19.127-4.922-29.827-8.756c-1.629-0.553-3.314-1.212-4.944-1.819
				c-0.869-0.302-1.685-0.659-2.5-0.963c-5.274-2.08-10.552-4.376-15.837-6.94c-1.308-0.668-2.617-1.337-3.979-2.004
				c-7.579-3.909-14.957-8.416-21.92-13.578c-0.768-0.574-1.536-1.147-2.303-1.721c-5.596-4.28-10.824-8.946-15.525-14.109
				c-1.714-1.843-3.32-3.689-4.821-5.645c-1.332-1.637-2.556-3.277-3.728-4.971c-0.891-1.217-1.729-2.489-2.515-3.816
				c-0.617-1.008-1.233-2.016-1.85-3.025c-0.169-0.319-0.337-0.584-0.507-0.903c-0.732-1.329-1.465-2.711-2.145-4.094
				c-6.64-22.993-8.884-42.323-8.201-58.602c-0.001-0.054-0.001-0.054-0.002-0.108c-0.001-0.054-0.003-0.107,0.05-0.163
				c0,0-0.001-0.054,0.051-0.109c-0.004-0.161-0.007-0.269,0.043-0.432c0.202-5.012,0.628-9.654,1.49-14.09l-0.001-0.054
				c1.515-8.598,3.917-16.141,6.989-22.73c0.663-1.523,1.382-2.995,2.103-4.358c15.967-30.001,44.362-38.172,48.162-39.125
				c0.106-0.056,0.214-0.059,0.268-0.06c0.106-0.056,0.16-0.058,0.16-0.058c-81.784,178.591,132.153,147.683,132.153,147.683
				c201.651,19.95,356.38-32.305,326.794-153.604C2612.217,3234.725,2646.286,3236.324,2665.035,3234.525z"/>
		</g>
		<g>
			<g>
				<path style="fill:#B1411E;" d="M1882.521,696.698c0,0,145.432-72.608,352.156-25.317l1.579,65.32
					c0,0,255.849,30.306,390.203,201.156c0,0-60.993,119.997-63.135,110.488c151.763,171.413,246.241,380.466,223.345,666.638
					l-70.824-32.996c0,0,70.955,211.785-24.187,418.802l-105.067-89.658c0,0,49.211,183.682-187.888,340.67l-49.967-58.549
					c0,0-115.7,157.789-351.592,210.175l-13.182-81.846c-177.786,100-361.346,136.484-418.023,243.059
					c-48.735-134.009-197.898-191.293-274.167-333.706c0,0-7.35,43.594-11.98,141.744
					c-119.528-63.672-212.084-180.745-268.048-370.268l-54.839,48.944c-81.47-107.958-112.372-263.814-70.628-488.483
					l-48.511,21.037c0,0-107.606-337.988,101.68-544.724s201.455-298.982,201.455-298.982l-29.584-65.111
					c0,0,165.362-111.838,407.366-65.866l-46.415-66.104C1472.269,643.121,1727.291,590.274,1882.521,696.698z"/>
			</g>
			<g>
				<path style="fill:#993419;" d="M2786.67,1714.983l-70.825-33.022c0,0,70.944,211.784-24.163,418.841l-105.079-89.672
					c0,0,49.2,183.682-187.899,340.671l-49.986-58.567c0,0-115.681,157.808-351.555,210.174l-13.181-81.809
					c-177.805,99.982-361.347,136.462-418.042,243.041c-48.728-134.003-197.898-191.293-274.167-333.706
					c0,0-7.35,43.594-11.98,141.744c-113.845-60.665-203.26-169.763-259.788-343.745
					c67.933,135.892,157.353,219.724,263.179,263.833c-3.532-95.151,0.141-137.873,0.141-137.873
					c86.917,130.951,238.757,173.555,297.804,298.737c27.289-62.34,98.399-105.626,185.832-152.668
					c7.303-3.818,14.381-7.63,21.238-11.325c0.055-0.057,0.055-0.057,0.055-0.057c73.59-40.321,120.946-76.703,82.394-100.253
					c-59.12,1.597-122.584-0.343-190.406-6.491c-298.687-26.955-450.769-139.861-517.933-255.547
					c83.263,74.794,220.217,138.934,435.166,164.159c511.812,60.179,780.71-109.286,829.236-271.073
					c54.021-180.183-53.216-296.525-56.644-440.698c-4.269-178.942-151.514-381.487-380.69-355.613
					c251.198-72.008,424.662,156.066,436.284,361.104c3.715,65.624,25.659,125.205,46.254,186.947l22.792,60.483
					c25.356,67.285,70.459,125.333,129.391,166.53l20.538,14.356c75.979-205.755-8.822-402.134-10.601-406.237l72.498,25.754
					c-0.236-63.075-6.081-121.812-16.932-176.731c0,0-0.001-0.056-0.003-0.112c-38.656-141.473-190.83-21.719-190.83-21.719
					l-0.823-34.041c0,0,8.534,5.396,25.112-11.027c16.577-16.423,50.791-35.625,60.217-51.259
					c9.426-15.634,51.763-53.351,51.763-53.351c-48.239-106.844-118.59-196.739-203.184-275.59
					c4.423-0.107,31.116-61.592,44.684-93.628c54.152,29.279,107.939,68.931,149.901,122.314c0,0-56.312,110.883-62.582,111.035
					C2715.273,1220.189,2809.509,1429.113,2786.67,1714.983z"/>
			</g>
			<g style="opacity:0.3;">
				<path style="fill:#4D146E;" d="M1788.197,2389.636c-6.857,3.695-13.936,7.507-21.238,11.325
					C1773.927,2397.208,1781.005,2393.396,1788.197,2389.636z"/>
			</g>
			<g style="opacity:0.3;">
				<path style="fill:#4D146E;" d="M1011.743,2102.41c2.683,9.01,5.417,17.852,8.26,26.522c-3.941-7.748-7.716-15.611-11.441-23.701
					L1011.743,2102.41z"/>
			</g>
			<g style="opacity:0.6;">
				<path style="fill:#F1F2F2;" d="M964.856,2144.271l-7.952,7.083c-75.121-99.528-107.249-239.758-79.077-437.075l42.854-18.626
					C883.795,1894.02,903.596,2038.806,964.856,2144.271z"/>
			</g>
			<g style="opacity:0.6;">
				<path style="fill:#F1F2F2;" d="M2234.677,671.362l0.629,26.035c-188.63-32.696-318.38,32.063-318.38,32.063
					c-155.23-106.387-410.252-53.558-410.252-53.558l46.415,66.104c-242.004-45.972-407.366,65.866-407.366,65.866l29.584,65.111
					c0,0,7.832,92.246-201.455,298.982c-163.873,161.885-133.48,404.173-112.578,501.761l-23.506,10.204
					c0,0-107.607-338.011,101.68-544.747s201.455-298.982,201.455-298.982l-29.584-65.111c0,0,165.362-111.838,407.366-65.866
					l-46.415-66.104c0,0,255.022-52.829,410.252,53.558C1882.521,696.679,2027.936,624.091,2234.677,671.362z"/>
			</g>
			<g>
				<path style="fill:#650000;" d="M1565.943,2684.242c-0.459,0-0.913-0.02-1.377-0.049c-7.72-0.542-14.404-5.581-17.051-12.856
					c-24.023-66.06-75.508-113.501-130.019-163.735c-39.028-35.962-79.053-72.847-112.539-118.965
					c-1.9,21.538-3.926,49.717-5.586,84.966c-0.318,6.714-4.048,12.793-9.888,16.118c-5.845,3.32-12.983,3.423-18.906,0.259
					c-124.604-66.377-212.637-181.914-268.506-352.666l-32.114,28.662c-4.087,3.652-9.497,5.444-14.966,4.883
					c-5.454-0.532-10.435-3.325-13.73-7.7c-85.61-113.442-112.036-266.758-80.435-467.886l-15.264,6.619
					c-5.078,2.202-10.869,2.151-15.908-0.139c-5.049-2.295-8.887-6.616-10.566-11.897c-1.138-3.567-27.813-88.623-28.564-200.652
					c-1.006-149.778,45.727-275.635,135.146-363.965c177.012-174.856,193.911-264.526,195.503-281.072l-27.7-60.967
					c-3.955-8.704-1.055-18.989,6.865-24.346c6.582-4.451,154.219-102.146,375.884-75.989l-19.995-28.479
					c-3.794-5.4-4.614-12.349-2.183-18.484c2.427-6.135,7.783-10.635,14.243-11.975c10.547-2.183,255.401-51.352,416.021,50.474
					c37.881-16.011,172.871-63.73,354.741-22.129c8.74,2,15.01,9.673,15.225,18.635l1.182,48.814
					c60.708,10.081,267.271,54.514,386.416,206.021c4.717,6.001,5.522,14.194,2.065,20.998
					c-0.146,0.281-14.473,28.455-29.341,56.169c-11.162,20.808-19.092,35.325-25.376,45.31
					c166.436,193.877,237.441,412.688,216.992,668.325c-0.513,6.401-4.126,12.144-9.673,15.376
					c-5.557,3.232-12.339,3.538-18.145,0.83l-32.93-15.342c16.196,73.474,36.973,232.8-35.991,391.565
					c-2.568,5.581-7.598,9.639-13.599,10.962c-5.986,1.309-12.266-0.249-16.938-4.233l-68.296-58.281
					c-0.786,69.302-29.204,196.899-201.118,310.723c-8.252,5.469-19.297,3.921-25.732-3.618l-34.79-40.767
					c-39.448,44.756-153.672,155.737-347.607,198.804c-5.278,1.162-10.791,0.112-15.254-2.915c-4.468-3.032-7.49-7.773-8.345-13.105
					l-8.774-54.468c-54.341,28.833-109.023,52.578-158.018,73.857c-104.028,45.171-193.867,84.185-227.759,147.91
					C1579.825,2680.268,1573.15,2684.238,1565.943,2684.242z M1291.778,2311.327c7.139,0,13.823,3.911,17.275,10.352
					c34.561,64.531,85.625,111.587,135.01,157.095c49.023,45.176,95.752,88.232,125.552,145.63
					c47.485-57.012,131.113-93.325,225.771-134.434c58.233-25.288,118.452-51.436,178.965-85.474
					c5.591-3.145,12.358-3.35,18.125-0.571c5.771,2.783,9.819,8.213,10.835,14.541l9.824,60.991
					c212.563-54.385,318.711-196.323,319.795-197.798c3.54-4.829,9.097-7.773,15.083-7.998c5.923-0.273,11.743,2.314,15.635,6.865
					l38.55,45.171c205.313-144.087,167.202-302.749,165.439-309.575c-2.139-8.281,1.323-17.036,8.579-21.57
					c7.251-4.531,16.597-3.879,23.101,1.67l84.8,72.361c75.049-189.456,13.794-378.42,13.135-380.386
					c-2.471-7.429-0.293-15.623,5.552-20.833c5.84-5.212,14.229-6.45,21.318-3.147l44.912,20.923
					c13.003-239.868-56.821-438.12-218.467-621.631c-3.125-2.754-5.386-6.504-6.367-10.864c-1.86-8.271,1.812-16.743,8.979-21.074
					c8.306-12.273,30.361-53.049,50.01-91.255c-129.604-153.865-366.821-183.86-369.253-184.15
					c-9.673-1.157-17.041-9.251-17.275-18.992l-1.206-49.893c-188.984-38.398-322.842,26.292-324.209,26.97
					c-6.367,3.152-13.955,2.622-19.81-1.387c-115.976-79.514-294.658-65.093-365.151-55.408l28.438,40.503
					c4.59,6.531,4.756,15.19,0.43,21.895c-4.326,6.707-12.31,10.115-20.127,8.628c-191.372-36.355-334.531,30.212-378.589,54.502
					l22.31,49.109c0.928,2.039,1.494,4.219,1.685,6.45c0.884,10.378,2.554,107.378-207.212,314.585
					c-168.857,166.804-120.913,428.215-102.437,503.77l27.695-12.012c6.65-2.883,14.351-1.86,20.01,2.651
					c5.669,4.514,8.384,11.789,7.061,18.913c-36.577,196.87-18.721,346.262,54.629,455.706l38.516-34.37
					c5.01-4.478,11.958-6.069,18.423-4.229c6.46,1.841,11.528,6.86,13.428,13.301c48.12,162.959,123.975,275.479,231.377,342.842
					c4.521-75.811,10.254-110.415,10.523-112.031c1.396-8.262,7.891-14.727,16.162-16.084
					C1289.669,2311.415,1290.728,2311.327,1291.778,2311.327z"/>
			</g>
			<g>
				<path style="fill:#650000;" d="M1895.3,711.563c-9.001,5.703-18.413,12.214-27.473,18.679
					c-9.114,6.528-18.105,13.279-26.978,20.222c-17.759,13.882-34.905,28.642-51.187,44.648
					c11.069-19.951,23.567-39.365,36.99-58.164c6.707-9.409,13.621-18.704,20.757-27.864c7.205-9.204,14.333-18.083,22.334-27.251
					l0.029-0.034c7.195-8.242,19.709-9.092,27.952-1.897c8.245,7.192,9.094,19.71,1.899,27.952
					C1898.357,709.304,1896.843,710.574,1895.3,711.563z"/>
			</g>
			<g>
				<g>
					<path style="fill:#FEB845;" d="M1698.49,1195.07c-271.698-231.526-459.557-123.354-565.021,264.818
						c0,0-44.735,157.942-84.503,289.62c-39.768,131.678,40.324,432.26,554.044,478.667
						c513.72,46.408,776.093-146.557,818.508-323.231c47.248-196.803-64.277-318.685-73.089-474.418
						C2333.761,1171.314,2060.507,875.401,1698.49,1195.07z"/>
				</g>
				<g style="opacity:0.6;">
					<path style="fill:#F1F2F2;" d="M2278.7,1218.022c-111.377-143.973-314.995-208.015-558.919,7.345
						c-271.698-231.526-459.557-123.346-565.022,264.799c0,0-44.754,157.942-84.483,289.657
						c-17.43,57.676-11.837,147.679,43.092,234.586c-74.636-95.674-83.836-200.492-64.384-264.883
						c39.73-131.715,84.484-289.657,84.484-289.657c105.464-388.145,293.324-496.325,565.022-264.799
						C1958.924,965.137,2173.385,1053.679,2278.7,1218.022z"/>
				</g>
				<g style="opacity:0.3;">
					<path style="fill:#4D146E;" d="M1651.428,1185.675c-68.459-57.953-132.086-94.51-190.796-110.682
						c62.866,5.035,132.71,36.849,209.51,96.896C1663.919,1176.298,1657.7,1180.929,1651.428,1185.675z"/>
				</g>
				<g>
					<path style="fill:#F48D40;" d="M2421.517,1904.926c-42.396,176.709-304.788,369.658-818.508,323.25
						c-298.687-26.955-450.769-139.861-517.933-255.547c83.263,74.794,220.217,138.934,435.166,164.159
						c511.811,60.179,780.71-109.286,829.236-271.073c54.02-180.183-53.216-296.525-56.644-440.698
						c-4.268-178.942-151.514-381.487-380.69-355.613c251.198-72.008,424.662,156.066,436.284,361.104
						C2357.234,1586.259,2468.75,1708.157,2421.517,1904.926z"/>
				</g>
				<g style="opacity:0.3;">
					<path style="fill:#4D146E;" d="M1912.144,1069.404c-66.319,18.969-138.07,58.91-213.655,125.666
						c-9.552-8.116-18.982-15.844-28.347-23.18C1757.812,1109.099,1839.124,1077.667,1912.144,1069.404z"/>
				</g>
				<g>
					<path style="fill:#F1F2F2;" d="M1546.31,1652.421c-24.667,10.785-46.959,25.105-68.179,42.99
						c-23.307,19.645-50.442,34.195-79.897,42.043c-26.783,7.136-57.904,24.409-65.059,65.876
						c-13.104,75.946,25.676,266.883,291.267,315.086c265.591,48.203,429.32-189.178,390.368-294.211
						c-22.722-61.269-76.405-82.394-117.195-89.36c-31.293-5.345-60.469-18.847-84.608-39.466
						c-27.722-23.679-65.472-43.315-110.583-54.473C1650.443,1628.05,1595.373,1630.969,1546.31,1652.421z"/>
				</g>
				<g>
					<g>
						
							<ellipse transform="matrix(0.0444 -0.999 0.999 0.0444 -184.6839 2866.7595)" style="fill:#650000;" cx="1406.184" cy="1529.919" rx="124.83" ry="96.294"/>
					</g>
					<g>
						
							<ellipse transform="matrix(0.0444 -0.999 0.999 0.0444 -127.9465 2893.1067)" style="fill:#F1F2F2;" cx="1448.322" cy="1513.434" rx="45.554" ry="31.491"/>
					</g>
					<g style="opacity:0.35;">
						
							<ellipse transform="matrix(0.9801 -0.1985 0.1985 0.9801 -283.9117 300.9276)" style="fill:#F1F2F2;" cx="1358.88" cy="1566.435" rx="21.304" ry="40.691"/>
					</g>
				</g>
				<g>
					<g>
						
							<ellipse transform="matrix(0.9957 -0.0926 0.0926 0.9957 -134.7604 187.992)" style="fill:#650000;" cx="1957.949" cy="1545.835" rx="103.653" ry="134.37"/>
					</g>
					<g>
						
							<ellipse transform="matrix(0.9957 -0.0926 0.0926 0.9957 -133.5174 183.6454)" style="fill:#F1F2F2;" cx="1911.786" cy="1530.302" rx="33.897" ry="49.035"/>
					</g>
					<g style="opacity:0.35;">
						
							<ellipse transform="matrix(0.1509 -0.9885 0.9885 0.1509 142.7088 3331.4255)" style="fill:#F1F2F2;" cx="2010.707" cy="1582.636" rx="43.801" ry="22.932"/>
					</g>
				</g>
				<g>
					<path style="fill:#650000;" d="M1564.625,1721.345c37.63-21.805,120.713-15.065,154.931,12.365
						c14.102,11.305,14.158,33.032,0.747,45.148c-14.106,12.744-39.321,30.667-78.676,42.675
						c-7.787,2.376-16.232,1.525-23.361-2.407c-15.538-8.57-43.634-26.773-63.023-54.963
						C1545.455,1749.934,1549.681,1730.004,1564.625,1721.345z"/>
				</g>
				<g>
					<path style="fill:#650000;" d="M1472.163,1837.041c6.538,16.611,14.216,31.926,24.307,43.899
						c5.051,5.933,10.552,11.008,16.34,14.841c5.835,3.823,11.953,6.174,17.981,7.415c12.07,2.502,24.338-0.281,36.853-5.989
						c6.248-2.878,12.476-6.594,18.679-10.798c6.233-4.238,12.261-9.121,18.701-13.923l0.642-0.479
						c9.116-6.799,21.855-5.369,29.353,2.874c11.87,13.132,24.507,24.739,38.579,33.379c14.099,8.481,29.358,13.931,45.144,14.531
						c15.786,0.754,32.021-4.102,47.212-13.63c15.288-9.482,28.748-23.613,41.599-39.231l0.037-0.044
						c1.006-1.221,2.81-1.396,4.031-0.391c0.884,0.725,1.218,1.873,0.955,2.913c-5.09,20.078-14.426,39.922-29.844,56.428
						c-15.09,16.523-37.258,29.199-61.677,31.97c-24.338,3.01-49.258-3.11-69.563-15.005c-20.474-11.79-37.153-28.767-48.467-48.264
						l29.993,2.393c-12.156,15.171-27.979,28.54-47.854,37.046c-9.878,4.238-20.828,7.114-32.275,7.686
						c-11.409,0.693-23.296-1.243-33.967-5.669c-10.681-4.37-20.193-10.991-27.468-18.997c-7.415-7.896-12.974-16.833-16.897-26.079
						c-7.888-18.503-9.963-37.871-7.949-56.184c0.173-1.58,1.594-2.72,3.174-2.546c1.099,0.12,1.982,0.842,2.363,1.802
						L1472.163,1837.041z"/>
				</g>
				<g>
					<path style="fill:#650000;" d="M1618.99,1905.793c-10.049,0-18.599-7.671-19.497-17.869
						c-0.171-1.946-4.009-48.24,11.528-101.033c3.057-10.386,13.979-16.323,24.336-13.269c10.386,3.057,16.328,13.953,13.271,24.338
						c-13.354,45.381-10.112,86.157-10.078,86.565c0.908,10.774-7.08,20.266-17.852,21.194
						C1620.128,1905.768,1619.556,1905.793,1618.99,1905.793z"/>
				</g>
				<g>
					<path style="fill:#650000;" d="M1751.719,2254.697c-47.744,0-97.886-2.251-150.474-7.002
						c-312.627-28.237-454.985-147.866-519.365-243.245c-66.411-98.401-70.244-199.141-51.68-260.608
						c39.258-130.005,83.96-287.72,84.409-289.297c60.752-223.625,149.351-354.978,263.267-390.2
						c92.813-28.706,200.532,6.626,320.391,104.985c187.227-159.072,335.786-147.5,428.193-108.921
						c133.062,55.547,232.388,207.288,241.538,369.009c3.223,56.965,20.898,109.392,39.604,164.897
						c31.196,92.546,63.457,188.242,32.979,315.205C2398.555,2084.555,2166.851,2254.687,1751.719,2254.697z M1442.667,1093.913
						c-18.457,0-36.191,2.625-53.208,7.886c-100.249,30.999-180.015,153.206-237.075,363.228
						c-0.503,1.785-45.293,159.814-84.653,290.149c-15.229,50.43-12.148,140.229,46.646,227.344
						c59.624,88.335,193.101,199.277,490.396,226.133c229.053,20.693,428.164-5.625,575.786-76.123
						c119.272-56.963,200.156-141.582,221.899-232.158c27.847-115.986-2.578-206.245-32.002-293.533
						c-18.716-55.53-38.071-112.949-41.597-175.203c-8.335-147.292-97.773-285.068-217.5-335.049
						c-84.165-35.127-221.865-44.031-399.893,113.176c-7.305,6.46-18.257,6.558-25.688,0.227
						C1595.172,1132.778,1513.663,1093.913,1442.667,1093.913z"/>
				</g>
				<g style="opacity:0.3;">
					<path style="fill:#650000;" d="M1667.395,1791.521c6.826,96.939,109.13,111.273,163.362,37.21
						c0,0,14.195,123.763-105.414,158.399c0,0-77.633,10.129-107.8-48.357c0,0-20.402,36.516-76.436,36.002
						c-56.034-0.513-67.976-93.098-68.328-115.279c65.49,14.254,111.335,2.42,97.961-88.048L1667.395,1791.521z"/>
				</g>
			</g>
			<g>
				<g>
					<path style="fill:#FEB845;" d="M1135.561,1082.849l45.53,29.488c0,0-82.581,53.087-129.576,171.644
						c-94.159-27.248-164.075-113.064-166.57-216.307c-3.082-127.543,97.83-233.454,225.373-236.536
						c96.189-2.325,180.024,54.416,216.757,137.169C1274.03,982.473,1192.556,1014.19,1135.561,1082.849z"/>
				</g>
				<g>
					<path style="fill:#F48D40;" d="M1234.338,852.65c24.351,93.242-10.422,125.756-111.697,120.597l77.634,44.323l102.902-57.575
						l0.363-32.688"/>
				</g>
				<g>
					<path style="fill:#F48D40;" d="M1023.485,1126.416c-10.546,76.217-52.65,79.603-126.311,10.158c0,0,50.221,80.382,53.066,82.18
						c2.845,1.799,91.869,53.802,91.869,53.802l37.253-81.198l-17.88-15.441"/>
				</g>
				<g style="opacity:0.6;">
					<path style="fill:#F1F2F2;" d="M1302.35,925.711c-42.851-41.485-101.715-66.392-166.102-64.836
						c-127.543,3.082-228.457,108.937-225.373,236.536c1.183,48.934,17.509,93.973,44.446,130.689
						c-42.103-40.663-68.848-97.271-70.375-160.426c-3.082-127.543,97.83-233.454,225.373-236.536
						C1188.927,829.238,1259.245,866.754,1302.35,925.711z"/>
				</g>
				<g>
					<path style="fill:#FF9878;" d="M1142.093,1082.691l24.978,29.051l-58.275,71.361c-47.455-4.848-84.993-44.388-86.177-93.378
						c-1.284-53.134,40.73-97.286,93.863-98.57c31.802-0.769,60.336,13.948,78.435,37.264L1142.093,1082.691z"/>
				</g>
				<g>
					<path style="fill:#ED6E5D;" d="M1192.896,1025.946c-11.997-4.976-25.168-7.571-38.998-7.237
						c-53.133,1.284-95.091,45.435-93.807,98.568c0.545,22.564,8.772,43.093,22.157,59.128
						c-34.232-14.019-58.677-47.265-59.629-86.681c-1.284-53.133,40.73-97.285,93.863-98.569
						C1147.164,990.413,1174.778,1004.087,1192.896,1025.946z"/>
				</g>
				<g>
					<path style="fill:#650000;" d="M1069.751,1291.172l-6.26,11.128l-17.036-23.721l35.117,4.29l4.146,0.508
						c5.945,0.728,10.178,6.138,9.451,12.083c-0.2,1.643-0.789,3.198-1.616,4.509c-1.306,2.056-2.874,5.466-4.175,8.428
						c-1.36,3.079-2.603,6.274-3.809,9.502c-2.388,6.472-4.47,13.152-6.353,19.937c-1.855,6.792-3.477,13.699-4.88,20.688
						c-1.418,6.987-2.556,14.055-3.589,21.182c-1.057-7.107-2.009-14.275-2.671-21.501c-0.676-7.229-1.125-14.514-1.311-21.858
						c-0.151-7.344-0.081-14.744,0.378-22.219c0.244-3.74,0.542-7.495,1.011-11.296c0.505-3.921,0.901-7.358,2.043-11.99l11.98,17.1
						l-34.868,5.981c-8.601,1.475-16.768-4.299-18.245-12.9c-0.354-2.07-0.291-4.116,0.134-6.05l1.074-4.773l3.008-13.408
						c2.397-10.691,13.005-17.412,23.696-15.015s17.415,13.005,15.017,23.696c-0.427,1.904-1.116,3.684-2.017,5.308
						L1069.751,1291.172z"/>
				</g>
				<g>
					<path style="fill:#650000;" d="M1405.039,961.746c-25.093,9.839-50.525,18.852-77.49,26.157l-0.215,0.059
						c-10.789,2.922-21.904-3.455-24.827-14.241c-2.922-10.789,3.455-21.904,14.241-24.827c3.306-0.896,6.733-0.893,9.854-0.183
						C1351.807,954.541,1378.396,958.628,1405.039,961.746z"/>
				</g>
				<g>
					<path style="fill:#650000;" d="M1051.519,1303.586c-1.807,0-3.638-0.249-5.454-0.776
						c-105.435-30.513-178.062-124.817-180.713-234.663c-3.34-138.152,106.343-253.267,244.492-256.606
						c101.533-2.463,193.926,55.957,235.146,148.816c2.329,5.239,2.241,11.235-0.229,16.409c-2.475,5.171-7.09,9.002-12.627,10.481
						c-48.882,13.052-115.42,39.377-166.621,91.648l26.23,16.99c5.591,3.621,8.96,9.829,8.945,16.487
						c-0.01,6.658-3.399,12.854-8.999,16.455c-0.737,0.479-78.071,51.682-121.953,162.38
						C1066.71,1298.837,1059.371,1303.586,1051.519,1303.586z M1115.992,850.671c-1.729,0-3.462,0.019-5.2,0.063
						c-116.543,2.817-209.063,99.922-206.25,216.465c2.1,86.824,56.011,162.136,135.942,192.456
						c33.364-74.929,79.331-122.317,106.753-145.891l-22.329-14.463c-4.702-3.045-7.876-7.954-8.721-13.491
						c-0.85-5.537,0.713-11.172,4.292-15.481c51.831-62.441,121.997-96.15,178.447-114.192
						C1261.382,891.083,1192.095,850.671,1115.992,850.671z"/>
				</g>
				<g>
					<path style="fill:#650000;" d="M1108.819,1202.707c-0.669,0-1.338-0.034-2.017-0.105
						c-57.754-5.901-102.373-54.224-103.779-112.405c-0.747-30.933,10.591-60.308,31.924-82.717
						c21.343-22.417,50.132-35.173,81.064-35.923c36.743-0.832,71.904,15.879,94.39,44.839c6.641,8.552,5.088,20.867-3.462,27.505
						c-8.555,6.641-20.869,5.085-27.505-3.462c-15.107-19.461-37.778-30.379-62.476-29.688c-20.459,0.493-39.502,8.933-53.618,23.76
						c-14.116,14.829-21.621,34.27-21.128,54.739c0.932,38.489,30.415,70.454,68.574,74.353
						c10.772,1.099,18.608,10.723,17.51,21.492C1127.261,1195.187,1118.746,1202.707,1108.819,1202.707z"/>
				</g>
			</g>
			<g>
				<g>
					<path style="fill:#FEB845;" d="M2666.303,1069.217c-3.672,107.707-75.817,196.227-170.907,220.822l-0.056,0.001
						c-24.217-93.363-86.092-168.674-176.436-230.467l41.158-35.504c-37.413-32.036-79.655-52.976-118.471-66.604
						c38.063-80.135,118.103-134.057,208.766-130.926C2574.042,830.722,2670.73,939.42,2666.303,1069.217z"/>
				</g>
				<g>
					<path style="fill:#F48D40;" d="M2666.303,1069.217c-3.672,107.707-75.817,196.227-170.907,220.822l-0.056,0.001
						c-7.107-27.503-17.537-53.413-30.957-77.85c83.995-31.665,145.463-114.606,148.837-213.79
						c1.406-41.49-7.498-80.77-24.241-115.211C2638.466,928.044,2668.829,995.208,2666.303,1069.217z"/>
				</g>
				<g style="opacity:0.6;">
					<path style="fill:#F1F2F2;" d="M2647.393,965.922c-38.612-60.803-103.69-101.751-178.709-104.307
						c-81.692-2.844-154.812,40.715-196.266,108.047c-10.42-4.622-20.712-8.631-30.827-12.196
						c38.063-80.135,118.103-134.057,208.766-130.926C2539,829.552,2613.814,886.231,2647.393,965.922z"/>
				</g>
				<g>
					<path style="fill:#FF9878;" d="M2450.607,1189.219l-94.63-93.118l-37.073-36.526l36.988-31.874l-7.832-13.424
						c64.63-49.46,128.931-24.46,156.298,23.057C2530.494,1082.583,2523.116,1148.195,2450.607,1189.219z"/>
				</g>
				<g>
					<path style="fill:#ED6E5D;" d="M2504.359,1037.333c-4.901-1.114-10.15-2.724-15.692-4.887
						c-84.103-33.037-121.131,57.436-121.131,57.436l-11.558,6.218l-37.073-36.526l36.988-31.874l-7.832-13.424
						C2412.691,964.816,2476.992,989.816,2504.359,1037.333z"/>
				</g>
				<g>
					<path style="fill:#650000;" d="M2094.29,940.41c24.839-2.637,49.922-3.965,75.134-4.368
						c25.227-0.437,50.603,0.291,76.204,2.241c10.889,0.828,19.043,10.327,18.215,21.216c-0.828,10.889-10.327,19.043-21.216,18.215
						c-1.736-0.132-3.499-0.522-5.071-1.067c-22.866-8.057-46.416-15.142-70.364-21.13
						C2143.24,949.487,2118.928,944.307,2094.29,940.41z"/>
				</g>
				<g>
					<path style="fill:#650000;" d="M2514.998,1290.122c-1.506,6.948-2.754,13.826-3.64,20.911
						c-0.901,7.075-1.438,14.473-1.965,22.051l-0.259,3.75c-0.354,5.085-4.763,8.921-9.846,8.567
						c-0.647-0.044-1.321-0.171-1.921-0.339l-68.85-19.875l71.648-1.367l-12.026,11.975c-2.402-7.156-4.858-14.497-6.99-22.229
						c-2.144-7.717-3.906-15.701-5.354-23.608l-0.085-0.474c-1.995-10.884,5.215-21.323,16.099-23.318
						c10.886-1.992,21.326,5.215,23.318,16.101C2515.61,1284.917,2515.522,1287.639,2514.998,1290.122z"/>
				</g>
				<g>
					<path style="fill:#650000;" d="M2495.386,1309.64c-8.892,0-16.772-6.006-19.023-14.678
						c-22.051-85.027-77.178-156.731-168.525-219.209c-5.024-3.435-8.169-9.009-8.506-15.083c-0.342-6.077,2.158-11.965,6.768-15.94
						l23.218-20.029c-27.246-19.966-58.838-36.318-94.219-48.74c-5.244-1.843-9.463-5.825-11.602-10.957
						c-2.134-5.129-1.997-10.928,0.391-15.95c42.568-89.619,131.816-145.339,227.148-142.104
						c65.215,2.205,125.586,30.898,169.98,80.793c44.15,49.622,67.192,114.307,64.878,182.144l0,0
						c-3.872,113.533-80.186,211.865-185.591,239.128c-1.338,0.347-2.71,0.549-4.092,0.608
						C2495.938,1309.635,2495.66,1309.64,2495.386,1309.64z M2350.606,1058.115c79.629,59.263,132.651,128.838,157.979,207.314
						c79.224-28.931,135.073-107.268,138.13-196.88c1.968-57.725-17.559-112.683-54.985-154.746
						c-37.192-41.799-87.632-65.832-142.036-67.673c-72.979-2.554-141.65,36.533-180.308,100.923
						c39.243,16.047,73.96,36.892,103.428,62.127c4.341,3.718,6.841,9.141,6.851,14.856c0.015,5.713-2.471,11.145-6.797,14.878
						L2350.606,1058.115z M2666.304,1069.218h0.049H2666.304z"/>
				</g>
				<g>
					<path style="fill:#650000;" d="M2450.64,1208.813c-6.836,0-13.472-3.579-17.08-9.951c-5.332-9.424-2.017-21.382,7.407-26.714
						c38.389-21.719,58.818-52.588,57.529-86.921c-1.143-30.469-19.468-58.433-46.68-71.24
						c-28.398-13.359-61.006-7.725-91.826,15.876c-8.604,6.585-20.903,4.946-27.48-3.643c-6.582-8.596-4.951-20.898,3.643-27.48
						c42.412-32.478,90.645-39.858,132.358-20.225c40.327,18.977,67.476,60.288,69.16,105.242
						c1.841,48.987-26.372,93.643-77.397,122.512C2457.222,1207.995,2453.907,1208.813,2450.64,1208.813z"/>
				</g>
			</g>
			<g>
				<g>
					<path style="fill:#650000;" d="M1527.663,1281.152c36.354,27.733,22.865,68.744-32.577,75.498
						c-20.76,2.529-114.196-6.728-125.369-28.018C1352.758,1296.316,1470.523,1237.562,1527.663,1281.152z"/>
				</g>
			</g>
			<g>
				<g>
					<path style="fill:#650000;" d="M1835.274,1284.069c-34.972,29.457-19.517,69.769,36.186,73.836
						c20.858,1.523,113.738-12.237,123.869-34.041C2010.707,1290.767,1890.242,1237.77,1835.274,1284.069z"/>
				</g>
			</g>
		</g>
		<g style="opacity:0.3;">
			<path style="fill:#650000;" d="M1618.21,3165.216l-1.59,1.062l-49.585,33.721l-21.295,14.515c0,0-13.36,22.023-27.169,49.979
				c-9.083,18.527-18.426,39.646-24.157,58.738c-0.048,0.217-0.151,0.434-0.198,0.705c-0.596,2.061-1.031,4.117-1.356,6.279
				c-5.03,30.275,12.153,68.413,25.44,92.377l-0.969,0.023c-21.624,0.899-48.592,1.282-75.658-0.164
				c-2.049-0.112-4.098-0.224-6.201-0.388c-2.049-0.112-4.153-0.277-6.202-0.389c-4.1-0.332-8.201-0.663-12.304-1.102
				c-3.993-0.334-7.988-0.777-11.932-1.327c-0.054,0.001-0.108,0.003-0.217-0.049c-3.887-0.444-7.779-1.05-11.617-1.657
				c-3.893-0.66-7.733-1.375-11.521-2.145c-3.679-0.719-7.253-1.548-10.72-2.433c-7.586-1.97-14.694-4.222-21.112-6.867
				c-2.503-1.07-4.844-2.144-7.133-3.273l-0.055-0.052c-2.671-1.335-5.183-2.783-7.536-4.341c-2.353-1.559-4.492-3.176-6.472-4.905
				c-5.337-4.717-10.248-9.606-14.679-14.722c-2.989-3.374-5.712-6.862-8.275-10.407c-6.685-9.261-11.984-19.095-15.73-29.235
				c-6.164-16.651-8.203-34.209-5.563-51.935c107.919,125.276,223.918-23.396,223.918-23.396c1.078-2.18,2.102-4.358,3.127-6.537
				c0.103-0.218,0.205-0.436,0.307-0.653c22.157-47.92,33.048-96.375,36.951-142.077c22.031,4.799,44.983,12.052,66.571,22.999
				l2.157,20.194L1618.21,3165.216z"/>
		</g>
		<g>
			<g>
				<path style="fill:#FFFFFF;" d="M2945.247,1138.297c-24.509-40.099-36.594-88.236-31.423-138.595
					c12.55-122.231,121.811-211.145,244.042-198.595c122.231,12.55,211.145,121.811,198.595,244.042
					c-12.55,122.231-121.811,211.145-244.042,198.595c-33.999-3.491-65.406-14.483-92.783-31.137l-102.958,23.09L2945.247,1138.297z
					"/>
			</g>
			<g style="opacity:0.5;">
				<g>
					<path style="fill:#FFFFFF;" d="M3153.496,843.674c-114.181-11.723-217.018,65.102-240.302,174.907
						c-0.028-7.843,0.31-15.757,1.129-23.735c12.55-122.231,121.811-211.145,244.042-198.595s211.145,121.811,198.595,244.042
						c-0.823,8.013-2.084,15.872-3.715,23.58C3352.815,951.58,3267.714,855.401,3153.496,843.674z"/>
				</g>
			</g>
			<g>
				<path style="fill:#650000;" d="M3135.596,1265.029c-8.374,0-16.787-0.43-25.229-1.296
					c-33.447-3.435-65.044-13.447-94.053-29.785l-95.239,21.357c-6.948,1.563-14.185-0.676-19.053-5.867s-6.626-12.568-4.624-19.395
					l26.123-89.075c-24.59-43.733-34.844-93.088-29.688-143.32c13.667-133.057,133.105-230.159,266.084-216.528
					c64.458,6.616,122.476,37.94,163.374,88.196c40.894,50.256,59.775,113.43,53.159,177.888
					c-6.621,64.453-37.939,122.473-88.198,163.372C3244.576,1246.115,3191.143,1265.029,3135.596,1265.029z M3019.635,1192.516
					c3.657,0,7.271,0.999,10.439,2.927c25.791,15.684,54.185,25.21,84.395,28.313c53.779,5.508,106.484-10.229,148.418-44.351
					c41.934-34.124,68.066-82.532,73.584-136.309c5.522-53.777-10.229-106.487-44.351-148.418
					c-34.121-41.931-82.529-68.064-136.304-73.584c-111.006-11.389-210.605,69.643-222.002,180.659
					c-4.565,44.416,5.317,88.01,28.574,126.064c2.954,4.837,3.73,10.696,2.139,16.133l-18.97,64.678l69.683-15.628
					C3016.69,1192.677,3018.165,1192.516,3019.635,1192.516z"/>
			</g>
			<g style="opacity:0.3;">
				<path style="fill:#650000;" d="M2943.998,1136.161c60.939,51.544,144.89,74.116,228.257,53.367
					c92.455-23.011,160.576-93.414,185.078-178.86c0.585,11.329,0.323,22.846-0.872,34.482
					c-12.55,122.231-121.811,211.145-244.042,198.595c-33.999-3.491-65.406-14.483-92.782-31.137l-102.959,23.09l28.569-97.401
					C2944.817,1137.594,2944.42,1136.869,2943.998,1136.161z"/>
			</g>
			<g>
				<path style="fill:#FF0068;" d="M3064.001,959.952L3064.001,959.952c19.254-19.254,50.471-15.804,69.725,3.45l2.997,2.997
					l2.997-2.997c19.254-19.254,50.471-22.704,69.725-3.45v0c19.254,19.254,19.254,50.471,0,69.725l-2.997,2.997l-60.534,60.534
					c-5.076,5.076-13.306,5.076-18.382,0l-60.534-60.534l-2.997-2.997C3044.747,1010.422,3044.747,979.206,3064.001,959.952z"/>
			</g>
		</g>
	</g>
</g>
</svg>
